<?xml version="1.0" encoding="UTF-8" standalone="no"?>
<svg width="371px" height="421px" viewBox="0 0 371 421" version="1.1" xmlns="http://www.w3.org/2000/svg" xmlns:xlink="http://www.w3.org/1999/xlink">
    <title>SF Embassy Emblem</title>
    <defs></defs>
    <g id="embassy-logo" stroke="none" stroke-width="0" fill="none" fill-rule="evenodd">
        <path d="M310.239,362.588 C298.99,365.605 286.976,366.569 276.045,370.299 C294.562,354.432 293.502,329.862 305.857,311.165 C309.787,305.879 313.043,300.328 317.626,295.304 C310.112,310.378 313.376,329.936 304.742,344.558 C301.417,350.365 296.667,355.999 291.409,360.566 C293.128,360.502 294.632,359.014 296.142,358.023 C310.161,344.032 328.476,340.117 343.64,328.752 C349.712,323.914 355.28,317.569 357.949,310.705 C355.088,333.92 331.99,355.678 310.239,362.588" id="Shape" fill="#FFFFFF"></path>
        <path d="M360.748,268.612 C353.89,278.372 345.587,287.459 339.252,297.383 C339.96,289.528 340.89,279.868 337.829,272.428 C332.53,256.408 327.874,240.141 326.371,222.559 L326.577,215.838 C330.569,233.793 348.209,246.14 347.096,266.274 C347.493,271.158 345.985,275.307 345.07,279.605 L345.372,279.918 L346.172,279.027 C348.787,269.15 350.108,258.762 354.172,249.541 C359.953,236.276 367.175,222.885 364.229,206.875 C373.019,225.756 370.36,250.984 360.748,268.612" id="Shape" fill="#FFFFFF"></path>
        <path d="M349.92,166.876 C361.49,182.555 364.021,207.535 355.602,225.519 C352.459,233.133 350.245,241.25 349.006,249.693 C348.419,248.234 348.284,246.274 347.762,244.657 C343.161,227.061 326.51,214.519 319.667,197.923 C317.498,192.496 315.648,186.887 314.622,181.004 C321.938,194.531 339.96,201.514 344.874,216.422 C346.89,220.191 346.773,224.906 348.021,228.956 C348.284,228.956 348.548,228.766 348.548,228.495 C346.386,213.14 347.046,197.068 349.13,181.903 C349.005,173.691 348.208,165.72 343.642,159.362 C346.566,161.064 347.885,164.34 349.92,166.876" id="Shape" fill="#FFFFFF"></path>
        <path d="M341.771,163.875 C344.802,177.609 340.371,190.983 343.162,204.858 L343.059,204.971 C335.581,190.277 319.717,183.34 308.807,171.574 C302.477,164.597 299.726,156.098 298.147,147.094 C304.398,162.174 321.274,165.497 330.965,178.206 C334.21,181.131 335.267,185.189 337.36,188.509 L337.702,188.182 C332.126,176.284 330.26,162.898 326.374,150.216 C324.424,144.718 320.563,139.319 315.378,135.851 C328.1,138.449 339.122,151.728 341.771,163.875" id="Shape" fill="#FFFFFF"></path>
        <path d="M307.759,132.374 C317.34,140.949 321.673,152.049 324.469,163.546 L326.058,167.199 C312.153,157.205 299.52,143.757 290.64,129.562 L279.803,118.593 C289.332,122.64 299.606,125.05 307.759,132.374" id="Shape" fill="#FFFFFF"></path>
        <path d="M88.185,120.418 C78.573,128.835 71.907,139.491 64.779,149.43 C58.388,157.342 50.216,162.562 42.968,169.37 C46.88,161.257 47.023,151.573 52.569,144.127 C60.461,130.353 75.101,125.509 88.185,120.418" id="Shape" fill="#FFFFFF"></path>
        <path d="M35.626,149.753 C40.299,143.943 46.224,139.899 52.894,138.203 C39.945,147.093 40.789,163.037 36.683,176.283 C35.374,181.186 33.101,185.702 31.97,190.727 L32.299,190.983 C34.454,185.308 38.241,179.939 42.966,175.309 C52.163,166.818 65.765,161.528 70.274,148.971 C70.065,166.415 55.509,180.137 41.579,189.944 C35.834,194.983 30.296,200.726 27.131,207.21 C26.822,202.805 27.781,198.384 27.469,193.672 C25.958,178.436 24.858,161.046 35.626,149.753" id="Shape" fill="#FFFFFF"></path>
        <path d="M9.429,201.848 C9.039,186.409 15.446,173.806 24.473,162.305 C24.737,162.174 24.923,161.911 25.262,161.97 C15.321,177.081 23.542,196.099 23.088,213.272 L21.783,230.86 C21.976,230.989 21.976,231.514 22.436,231.309 C23.022,229.354 23.15,227.257 23.542,225.243 C25.886,211.062 38.203,200.995 48.959,191.195 C51.256,188.625 53.289,186.027 54.469,183.02 C53.589,190.079 51.378,197.203 48.448,203.737 C40.073,220.063 24.604,233.458 21.783,252.159 C20.408,234.238 8.211,220.848 9.429,201.848" id="Shape" fill="#FFFFFF"></path>
        <path d="M1.908,223.797 C3.021,218.971 3.875,213.973 5.974,209.538 C1.992,229.948 15.72,244.655 20.226,262.347 C22.108,268.957 22.568,276.068 25.263,282.275 C25.512,282.417 25.73,282.145 25.888,281.952 C19.179,263.162 28.861,245.697 38.583,230.985 C40.951,226.997 42.313,222.559 43.486,217.969 C44.522,226.481 42.373,236.276 41.135,245.104 C38.771,256.339 35.241,266.993 32.169,277.9 C30.146,284.708 30.678,292.393 31.716,299.534 L30.742,298.755 C23.613,285.606 9.496,275.351 5.304,260.989 C1.851,249.539 -0.442,236.276 1.908,223.797" id="Shape" fill="#FFFFFF"></path>
        <path d="M1.265,263.658 C2.837,285.292 26.094,296.722 36.881,314.628 C39.428,318.29 41.644,322.344 45.056,325.413 C44.522,323.109 42.371,321.171 41.583,318.809 C37.812,311.3 36.434,302.348 37.34,293.271 C38.384,282.221 43.019,271.971 41.25,260.347 C50.725,280.778 47.845,306.275 53.148,328.414 C54.531,333.253 57.337,337.575 59.172,342.201 C39.703,328.94 13.161,316.334 4.524,292.03 C0.884,283.654 0.476,273.275 1.265,263.658" id="Shape" fill="#FFFFFF"></path>
        <path d="M12.895,313.329 C23.748,337.889 50.93,339.923 69.159,354.872 C72.515,357.847 76.027,360.372 79.812,362.143 L80.01,361.944 C75.822,358.157 70.985,353.847 68.051,348.943 C57.387,334.108 61.138,313.33 53.148,297.384 C60.408,306.068 67.015,315.102 71.395,324.955 C77.92,341.043 80.413,359.214 95.502,371.374 C79.172,365.993 60.039,367.495 45.625,357.442 C29.886,347.768 15.84,331.358 12.895,313.329" id="Shape" fill="#FFFFFF"></path>
        <path d="M40.79,359.138 C58.195,378.932 86.629,372.331 109.812,377.508 C113.086,377.956 116.083,379.269 119.554,378.734 C116.789,376.994 112.955,377.177 109.937,375.589 C91.769,369.204 89.104,349.529 79.237,336.266 C91.841,344.63 102.435,355.923 114.062,366.855 C122.418,374.182 132.478,377.557 143.079,379.714 C140.53,380.641 137.189,380.39 134.458,381.105 C115.415,385.792 94.259,393.441 74.065,386.582 C60.938,382.458 47.394,372.076 40.79,359.138" id="Shape" fill="#FFFFFF"></path>
        <path d="M276.997,405.275 C257.384,412.593 236.918,404.942 221.601,393.325 C215.399,389.385 209.93,383.708 201.91,384.213 C199.004,384.158 196.195,384.301 193.724,385.011 C208.606,391.936 222.42,401.483 235.063,413.693 C232.934,416.126 230.172,418.4 227.574,420.496 C215.399,407.373 201.91,394.741 186.808,387.364 C183.849,387.747 181.038,389.528 178.374,390.959 C166.08,398.733 153.921,408.733 144.779,420.972 L136.925,414.489 C149.461,401.811 163.323,391.937 178.494,384.887 C163.586,380.168 153.862,392.652 142.55,399.005 C129.363,408.208 110.404,412.532 94.47,406.176 C85.9,402.93 77.597,398.144 71.394,390.364 C83.937,399.006 102.612,399.909 116.869,394.297 C136.004,385.997 155.889,375.471 178.958,380.511 C182.559,380.57 186.055,384.16 189.454,381.107 C206.603,376.658 226.01,379.715 240.77,387.555 L255.985,393.647 C270.124,398.875 288.41,397.433 300.532,388.82 C294.295,396.566 285.785,402.128 276.997,405.275" id="Shape" fill="#FFFFFF"></path>
        <path d="M298.007,385.013 C275.996,393.326 253.842,383.124 232.745,379.714 L228.682,379.195 L228.682,379.072 C238.772,376.781 248.557,373.773 256.589,366.526 C268.416,355.158 278.943,343.453 292.07,334.499 C282.334,346.988 281.304,364.767 265.213,372.798 C261.236,375.397 256.213,375.858 252.098,377.83 C257.961,377.956 263.328,375.857 269.123,375.268 C290.694,371.884 315.377,375.358 330.516,356.976 C324.893,369.783 310.819,380.509 298.007,385.013" id="Shape" fill="#FFFFFF"></path>
        <path d="M338.015,323.066 C329.323,328.751 320.505,334.035 312.153,340.504 L312.153,339.71 C324.951,318.439 318.696,289.216 326.577,265.804 L329.52,257.967 C327.874,272.545 334.21,284.898 333.765,299.534 C333.322,308.371 330.435,316.204 325.79,323.27 L326.576,323.27 C332.852,315.028 337.744,306.275 345.073,298.43 C356.447,287.459 368.015,276.212 369.503,260.989 C373.367,286.404 359.11,308.677 338.015,323.066" id="Shape" fill="#FFFFFF"></path>
        <path d="M156.662,114.911 C156.662,114.911 175.374,111.715 185.081,111.715 C185.377,111.715 185.678,111.72 185.973,111.723 C185.961,109.27 185.945,106.809 185.922,104.34 C175.967,104.279 156.662,107.311 156.662,107.311 L156.662,114.911 L156.662,114.911 Z" id="Shape" fill="#FFFFFF"></path>
        <path d="M195.602,104.766 L195.602,112.155 C195.602,112.155 209.508,113.86 216.175,115.53 C216.151,112.993 216.129,110.456 216.101,107.919 C209.528,106.371 195.602,104.766 195.602,104.766" id="Shape" fill="#FFFFFF"></path>
        <path d="M228.931,111.615 C228.996,114.248 229.055,116.891 229.122,119.521 C251.275,127.656 270.559,141.736 285.037,159.808 C278.302,162.518 270.51,164.935 261.981,166.973 C261.128,168.323 260.15,169.542 259.141,170.742 C257.824,172.453 257.137,174.774 255.312,175.991 C268.457,173.367 279.965,169.989 289.624,165.91 C299.043,179.215 305.986,194.373 309.775,210.715 C301.257,225.601 267.363,237.79 223.546,241.866 C223.329,244.365 223.111,246.859 222.892,249.349 C245.447,247.344 265.809,243.244 282.057,237.399 C295.362,232.605 305.388,226.804 311.625,220.334 C312.681,227.227 313.188,234.29 313.086,241.492 C312.875,256.611 309.992,271.124 304.908,284.57 C291.604,297.851 257.786,308.094 217.276,311.232 C217.268,311.333 217.259,311.426 217.255,311.515 C217.18,313.285 217.322,316.015 217.534,318.621 C251.733,316.011 280.909,308.585 298.803,298.215 C277.425,339.379 234.338,367.676 185.154,367.676 C184.543,367.676 183.931,367.671 183.326,367.661 C149.141,367.182 117.193,353.423 93.363,328.913 C83.186,318.446 75.021,306.555 69.029,293.699 C87.488,306.025 120.01,315.114 158.763,318.358 C158.809,316.745 158.714,313.819 158.581,310.932 C112.161,306.923 74.468,294.22 63.081,278.456 C58.988,265.522 56.956,251.865 57.15,237.904 C57.257,230.301 58.037,222.847 59.43,215.616 C65.353,222.721 75.546,229.2 89.538,234.686 C106.642,241.39 128.235,246.207 152.325,248.738 C152.059,246.236 151.794,243.737 151.528,241.226 C128.724,238.732 108.36,234.134 92.233,227.81 C75.733,221.349 65.006,213.484 61.805,205.572 C66.196,189.853 73.526,175.328 83.162,162.639 C92.699,167.054 104.453,170.926 117.578,173.968 C116.382,172.461 115.773,170.347 114.39,169.033 C113.673,167.994 112.801,167.124 112.171,165.994 C111.957,165.711 111.464,165.212 111.092,164.724 C102.474,162.385 94.664,159.679 87.957,156.704 C103.191,138.915 123.186,125.319 145.881,117.928 C145.93,117.593 145.914,117.197 145.787,116.688 C145.767,114.496 145.744,112.312 145.724,110.131 C124.995,116.405 105.96,127.655 90.11,143.271 C64.596,168.411 50.266,201.978 49.769,237.795 C49.259,273.951 62.861,308.137 88.069,334.052 C113.278,359.982 147.069,374.539 183.216,375.047 C183.865,375.052 184.509,375.059 185.153,375.059 C220.912,375.059 254.637,361.23 280.126,336.118 C305.638,310.977 319.968,277.411 320.471,241.594 C321.308,181.624 282.812,130.09 228.931,111.615" id="Shape" fill="#FFFFFF"></path>
        <path d="M187.802,369.1 C187.802,369.1 187.331,338.137 187.167,321.539 C183.653,320.559 178.279,320.98 174.044,321.232 C172.333,321.334 170.9,323.632 169.712,325.212 C169.192,327.946 165.895,367.607 165.895,367.607 L159.114,366.46 C160.048,355.862 161.14,345.53 161.94,334.911 C162.484,331.478 162.013,325.432 163.105,320.471 C163.316,317.784 162.718,307.322 162.515,304.735 C160.271,283.62 150.313,189.688 149.458,178.933 C144.169,178.91 141.624,180.501 135.921,180.822 C133.009,180.986 134.683,176.928 131.946,176.928 C129.499,176.928 127.374,176.751 124.851,176.574 C122.32,176.397 118.827,168.586 118.203,167.456 C117.741,166.851 116.034,165.298 116.863,164.846 C127.941,164.732 137.363,164.627 148.439,164.51 C148.301,150.814 148.167,137.113 148.03,123.416 C147.551,120.495 150.971,121.391 150.165,118.144 C149.988,100.218 150.468,30.48 150.605,15.174 C151.061,15.501 150.999,15.564 151.422,15.174 C153.338,49.581 152.289,83.15 152.797,118.993 C152.338,121.376 154.342,121.245 153.715,123.797 C153.851,137.204 153.986,150.613 154.12,164.014 C161.108,162.355 168.164,160.759 174.174,158.14 C174.295,154.75 170.865,151.346 173.201,148.526 C177.452,148.017 179.986,149.264 182.403,150.621 C183.568,151.346 185.19,151.602 186.357,152.33 C187.498,152.584 187.927,152.131 187.655,151.007 C188.529,150.996 189.404,150.987 190.28,150.981 C190.89,103.516 190.5,49 191.099,0.857 L191.538,1.071 L191.976,0.845 C193.499,46.333 192.41,99.198 193.284,145.264 C193.298,146.866 193.316,148.469 193.333,150.072 C193.997,150.869 195.17,151.149 195.543,152.238 C203.619,154.503 206.422,145.608 214.734,148.11 C216.006,153.149 212.468,157.111 211.817,161.694 C214.695,162.29 216.827,163.648 219.709,164.243 C219.574,150.83 219.44,137.424 219.309,124.017 C218.799,121.643 221.421,122.329 220.58,119.633 C220.518,113.656 220.461,107.682 220.398,101.706 C220.427,99.28 221.287,97.674 221.208,95.139 C220.998,75.739 220.802,39.031 221.34,20.366 L221.774,20.581 L222.214,20.357 C222.381,37.409 223.126,94.518 223.126,97.25 C223.126,101.5 224.066,101.797 224.361,104.287 C224.804,124.741 225.402,145.038 225.415,165.933 C236.634,165.823 246.202,165.712 257.423,165.595 C256.384,168.182 254.777,170.22 253.118,172.202 C251.6,174.17 250.911,176.97 248.363,177.931 C244.286,177.969 241.851,178.016 237.773,178.056 C235.463,178.389 236.991,182.03 233.881,182.03 C230.875,182.03 227.708,180.666 224.245,180.377 C221.025,225.125 216.892,268.992 212.881,312.975 C212.732,316.588 213.474,324.305 213.89,326.526 C214.846,331.442 214.577,335.15 215.342,340.505 C216.129,349.431 217.319,364.46 217.319,364.46 L210.002,366.137 C210.002,366.137 207.974,341.049 206.448,326.16 C205.834,320.166 201.055,321.065 195.475,321.463 C195.163,337.643 195.605,368.682 195.605,368.682 L187.802,369.1 Z M180.434,171.633 C182.006,171.16 185.512,172.567 185.664,170.702 C186.098,169.224 184.938,169.438 183.473,169.847 C182.625,170.437 180.637,170.243 180.434,171.633 Z M199.663,170.999 C198.124,170.652 197.02,169.864 195.277,169.729 C195.284,170.313 195.29,170.897 195.298,171.478 C196.624,171.192 199.068,172.001 199.663,170.999 Z M185.297,177.705 C176.131,177.189 166.197,177.46 156.44,177.551 C155.894,177.734 155.49,178.131 155.579,178.874 C158.084,199.667 159.266,218.238 162.285,237.837 C170.68,236.973 177.172,234.244 185.413,233.233 C185.788,215.126 185.51,196.379 185.297,177.705 Z M217.705,182.628 C218.143,180.742 217.938,180.934 217.238,179.571 C215.312,177.212 211.508,177.878 207.605,177.916 C203.707,177.959 199.341,178 195.797,178.032 C194.997,195.722 195.248,214.437 195.026,232.696 C201.219,234.337 207.137,236.249 213.011,238.203 C213.689,228.188 217.909,184.123 217.705,182.628 Z M186.794,284.382 C186.72,276.718 186.324,257.116 186.065,254.654 C185.75,251.667 186.177,249.233 184.688,248.103 C182.137,246.441 166.526,248.631 164.156,250.059 C164.836,270.125 167.752,287.911 169.53,306.844 C171.836,307.917 174.877,307.17 177.397,306.768 C181.167,306.166 183.16,306.067 185.255,304.947 C187.882,299.604 186.871,292.008 186.794,284.382 Z M196.191,305.27 C199.379,306.334 201.92,307.666 205.824,306.93 C207.719,303.726 208.772,284.27 209.051,279.35 C209.982,269.859 211.061,260.537 211.389,250.465 C209.062,247.971 204.417,248.083 199.987,247.516 C198.525,247.531 197.065,247.545 195.614,247.562 C195.064,247.746 194.722,248.129 194.752,248.879 C195.199,265.915 193.7,282.077 194.814,298.727 C195,301.5 195.528,303.293 196.191,305.27 Z" id="Shape" fill="#FFFFFF"></path>
    </g>
</svg>